<svg width="24" height="24" viewBox="0 0 24 24" fill="none" xmlns="http://www.w3.org/2000/svg">
<path d="M11.9729 16.4225C11.7584 16.4225 11.5487 16.4868 11.3703 16.6072C11.192 16.7277 11.053 16.8989 10.9709 17.0992C10.8888 17.2995 10.8673 17.5199 10.9092 17.7326C10.951 17.9452 11.0543 18.1405 11.206 18.2938C11.3576 18.4472 11.5509 18.5516 11.7613 18.5939C11.9717 18.6362 12.1897 18.6144 12.3879 18.5315C12.5861 18.4485 12.7555 18.308 12.8746 18.1277C12.9938 17.9474 13.0574 17.7355 13.0574 17.5187C13.0574 17.228 12.9431 16.9491 12.7398 16.7435C12.5364 16.538 12.2605 16.4225 11.9729 16.4225ZM23.545 18.0339L14.8144 2.68669C14.5322 2.17532 14.12 1.74937 13.6205 1.45285C13.121 1.15633 12.5522 1 11.9729 1C11.3936 1 10.8248 1.15633 10.3252 1.45285C9.8257 1.74937 9.41354 2.17532 9.13135 2.68669L0.454987 18.0339C0.163023 18.5316 0.0061395 19.0984 0.000176565 19.677C-0.00578637 20.2556 0.139382 20.8255 0.421025 21.3292C0.702668 21.833 1.11082 22.2527 1.60426 22.546C2.09771 22.8394 2.65898 22.9959 3.23142 22.9998H20.7143C21.2913 23.0056 21.8595 22.8561 22.3605 22.5667C22.8616 22.2774 23.2775 21.8585 23.5655 21.3531C23.8536 20.8477 24.0036 20.274 23.9999 19.6907C23.9963 19.1074 23.8393 18.5356 23.545 18.0339ZM21.6687 20.2264C21.5736 20.3973 21.4349 20.5394 21.2671 20.6377C21.0992 20.7361 20.9083 20.7871 20.7143 20.7855H3.23142C3.03741 20.7871 2.84652 20.7361 2.67865 20.6377C2.51078 20.5394 2.37209 20.3973 2.27702 20.2264C2.18183 20.0597 2.13172 19.8707 2.13172 19.6783C2.13172 19.4858 2.18183 19.2968 2.27702 19.1301L10.9534 3.78292C11.0444 3.60336 11.1827 3.45267 11.353 3.34744C11.5233 3.24221 11.719 3.18653 11.9186 3.18653C12.1182 3.18653 12.314 3.24221 12.4843 3.34744C12.6546 3.45267 12.7929 3.60336 12.8839 3.78292L21.6145 19.1301C21.7221 19.2944 21.7839 19.4849 21.7934 19.6817C21.803 19.8785 21.7599 20.0742 21.6687 20.2483V20.2264ZM11.9729 7.65262C11.6852 7.65262 11.4094 7.76811 11.206 7.9737C11.0026 8.17928 10.8883 8.45811 10.8883 8.74885V13.1338C10.8883 13.4245 11.0026 13.7033 11.206 13.9089C11.4094 14.1145 11.6852 14.23 11.9729 14.23C12.2605 14.23 12.5364 14.1145 12.7398 13.9089C12.9431 13.7033 13.0574 13.4245 13.0574 13.1338V8.74885C13.0574 8.45811 12.9431 8.17928 12.7398 7.9737C12.5364 7.76811 12.2605 7.65262 11.9729 7.65262Z" fill="#0147FE"/>
</svg>
