<svg width="24" height="24" viewBox="0 0 24 24" fill="none" xmlns="http://www.w3.org/2000/svg">
<path fill-rule="evenodd" clip-rule="evenodd" d="M7.5629 19V8.879H4.19886V19H7.5629ZM5.88086 7.49715C7.05397 7.49715 7.78413 6.71996 7.78413 5.74871C7.76227 4.7556 7.05397 3.99999 5.90312 3.99999C4.75238 3.99999 4 4.7556 4 5.74871C4 6.71996 4.73001 7.49715 5.85894 7.49715H5.88086Z" fill="#64748B"/>
<path fill-rule="evenodd" clip-rule="evenodd" d="M9.42432 19H12.7883V13.348C12.7883 13.0455 12.8102 12.7433 12.899 12.5271C13.1422 11.9227 13.6957 11.2968 14.625 11.2968C15.8423 11.2968 16.3293 12.2249 16.3293 13.5855V19H19.693V13.1968C19.693 10.088 18.0334 8.6415 15.8201 8.6415C14.0053 8.6415 13.2086 9.65588 12.7659 10.3468H12.7884V8.879H9.42441C9.46855 9.82868 9.42432 19 9.42432 19Z" fill="#64748B"/>
</svg>
