<svg width="126" height="24" viewBox="0 0 126 24" fill="none" xmlns="http://www.w3.org/2000/svg">
<g clip-path="url(#clip0_76_6219)">
<path d="M53.7996 23.5294L60.501 0H66.8671L73.535 23.5294H69.8159L68.2744 17.9832H59.0937L57.5522 23.5294H53.7996ZM59.9983 14.6218H67.3698L63.9521 2.2521H63.416L59.9983 14.6218Z" fill="#97A6BA"/>
<path d="M83.1462 23.832C81.8952 23.832 80.7785 23.5518 79.7955 22.9916C78.8127 22.4314 78.0418 21.6359 77.4836 20.6051C76.9251 19.5743 76.6458 18.3418 76.6458 16.9076V6.95801H80.0972V16.6723C80.0972 18.1065 80.4545 19.1709 81.1693 19.8656C81.8841 20.5378 82.8782 20.874 84.1515 20.874C85.5588 20.874 86.6867 20.4034 87.5357 19.4622C88.4068 18.4986 88.8425 17.1205 88.8425 15.3278V6.95801H92.2937V23.5294H88.9095V21.0421H88.3733C88.0607 21.7143 87.5022 22.353 86.6978 22.958C85.8937 23.5406 84.71 23.832 83.1462 23.832Z" fill="#97A6BA"/>
<path d="M97.3953 23.5293V6.95785H100.779V8.90745H101.316C101.584 8.21276 102.008 7.70857 102.589 7.39484C103.192 7.05871 103.929 6.89062 104.8 6.89062H106.777V10.0167H104.666C103.549 10.0167 102.634 10.3304 101.919 10.9579C101.204 11.5629 100.846 12.5041 100.846 13.7814V23.5293H97.3953Z" fill="#97A6BA"/>
<path d="M115.022 23.9999C113.838 23.9999 112.777 23.7982 111.839 23.3949C110.922 22.9915 110.185 22.3977 109.627 21.6134C109.091 20.829 108.823 19.8767 108.823 18.7562C108.823 17.6134 109.091 16.6722 109.627 15.9327C110.185 15.1708 110.934 14.5994 111.872 14.2184C112.832 13.8375 113.916 13.647 115.122 13.647H120.148V12.5714C120.148 11.6078 119.858 10.8347 119.277 10.252C118.696 9.66938 117.803 9.37808 116.596 9.37808C115.412 9.37808 114.508 9.65819 113.882 10.2184C113.257 10.7786 112.844 11.5069 112.643 12.4033L109.426 11.3613C109.694 10.4649 110.118 9.65818 110.699 8.94109C111.302 8.2016 112.095 7.60776 113.078 7.15957C114.061 6.71141 115.245 6.4873 116.63 6.4873C118.774 6.4873 120.461 7.03634 121.69 8.13437C122.918 9.23242 123.532 10.7898 123.532 12.8066V19.6302C123.532 20.3025 123.845 20.6386 124.471 20.6386H125.878V23.5293H123.298C122.516 23.5293 121.879 23.3277 121.388 22.9243C120.896 22.5209 120.651 21.9719 120.651 21.2772V21.1764H120.148C119.969 21.5125 119.702 21.9047 119.344 22.3529C118.987 22.801 118.462 23.1932 117.769 23.5293C117.077 23.8431 116.161 23.9999 115.022 23.9999ZM115.524 21.1428C116.909 21.1428 118.026 20.7506 118.875 19.9663C119.724 19.1596 120.148 18.0615 120.148 16.6722V16.3361H115.323C114.407 16.3361 113.67 16.5377 113.112 16.9411C112.553 17.3221 112.274 17.8935 112.274 18.6554C112.274 19.4173 112.564 20.0223 113.145 20.4705C113.726 20.9187 114.519 21.1428 115.524 21.1428Z" fill="#97A6BA"/>
<mask id="mask0_76_6219" style="mask-type:alpha" maskUnits="userSpaceOnUse" x="0" y="0" width="48" height="24">
<path d="M0 23.788C5.49801e-07 17.479 2.4983 11.4285 6.94528 6.96733C11.3923 2.50623 17.4237 6.76853e-07 23.7127 0C30.0018 -6.76853e-07 36.0331 2.50622 40.48 6.96733C44.927 11.4285 47.4254 17.479 47.4254 23.788H23.7127H0Z" fill="#C4C4C4"/>
</mask>
<g mask="url(#mask0_76_6219)">
<path d="M44.4818 39.6825C54.2442 39.6825 62.1581 31.7434 62.1581 21.95C62.1581 12.1566 54.2442 4.21753 44.4818 4.21753C34.7194 4.21753 26.8054 12.1566 26.8054 21.95C26.8054 31.7434 34.7194 39.6825 44.4818 39.6825Z" fill="#97A6BA"/>
<path d="M10.728 32.1806C19.7411 32.1806 27.0477 24.8508 27.0477 15.8091C27.0477 6.7673 19.7411 -0.5625 10.728 -0.5625C1.71481 -0.5625 -5.5918 6.7673 -5.5918 15.8091C-5.5918 24.8508 1.71481 32.1806 10.728 32.1806Z" fill="#97A6BA"/>
<path d="M25.0012 31.0277C28.2752 31.0277 30.9293 25.8183 30.9293 19.3923C30.9293 12.9662 28.2752 7.75684 25.0012 7.75684C21.7271 7.75684 19.073 12.9662 19.073 19.3923C19.073 25.8183 21.7271 31.0277 25.0012 31.0277Z" fill="#97A6BA"/>
<path d="M53.6229 -16.5518H-9.89966V54.6208H53.6229V-16.5518Z" fill="white" fill-opacity="0.2"/>
</g>
</g>
<defs>
<clipPath id="clip0_76_6219">
<rect width="126" height="24" fill="white"/>
</clipPath>
</defs>
</svg>
