<svg width="148" height="34" viewBox="0 0 148 34" fill="none" xmlns="http://www.w3.org/2000/svg">
<path fill-rule="evenodd" clip-rule="evenodd" d="M8.9327 26.8713H1.22437V1.09668H8.9327V8.54033C13.6551 3.93201 19.979 1.34602 26.5715 1.34602C33.3007 1.34602 39.7501 4.04035 44.502 8.8295L44.5022 8.82962C49.253 13.618 51.9187 20.1082 51.9187 26.8713H44.2104C44.2104 22.1444 42.3469 17.6151 39.0368 14.2788C35.7271 10.9433 31.2429 9.07329 26.5715 9.07329C21.9001 9.07329 17.4158 10.9434 14.1063 14.2789C10.7961 17.6151 8.9327 22.1443 8.9327 26.8713Z" fill="#97A6BA"/>
<path d="M26.5714 33.9997C30.4781 33.9997 33.6451 30.8079 33.6451 26.8706C33.6451 22.9333 30.4781 19.7415 26.5714 19.7415C22.6648 19.7415 19.4978 22.9333 19.4978 26.8706C19.4978 30.8079 22.6648 33.9997 26.5714 33.9997Z" fill="#97A6BA"/>
<path d="M70.6826 27.2886V12.0588H73.2117V18.468H80.3683V12.0588H82.8868V27.2886H80.3683V20.8582H73.2117V27.2886H70.6826ZM90.079 27.6164C89.2396 27.6164 88.5467 27.4754 88.0012 27.1934C87.4556 26.9114 87.0217 26.5518 86.7 26.1146C86.3782 25.6774 86.1403 25.2121 85.9865 24.7185C85.8323 24.225 85.7311 23.7596 85.6821 23.3225C85.64 22.8783 85.619 22.5187 85.619 22.2437V15.8663H88.1796V21.3659C88.1796 21.7184 88.2039 22.1168 88.2529 22.561C88.3019 22.9981 88.414 23.4212 88.5888 23.8301C88.7709 24.232 89.0364 24.5634 89.3865 24.8243C89.7431 25.0852 90.2222 25.2156 90.824 25.2156C91.1458 25.2156 91.4643 25.1627 91.7791 25.057C92.0936 24.9512 92.377 24.7714 92.6291 24.5176C92.8877 24.2567 93.0941 23.9006 93.2483 23.4494C93.4021 22.9981 93.479 22.427 93.479 21.736L94.9796 22.3812C94.9796 23.3542 94.7907 24.2356 94.413 25.0253C94.0423 25.8149 93.4931 26.446 92.7654 26.9184C92.0378 27.3837 91.1422 27.6164 90.079 27.6164ZM93.7833 27.2886V23.7455H93.479V15.8663H96.0186V27.2886H93.7833ZM103.511 27.6058C102.468 27.6058 101.559 27.3414 100.782 26.8126C100.006 26.2838 99.404 25.5646 98.9771 24.6551C98.5505 23.7455 98.3372 22.7196 98.3372 21.5774C98.3372 20.4211 98.5505 19.3917 98.9771 18.4892C99.4109 17.5796 100.023 16.864 100.814 16.3422C101.604 15.8134 102.535 15.549 103.605 15.549C104.682 15.549 105.585 15.8134 106.313 16.3422C107.047 16.864 107.603 17.5796 107.981 18.4892C108.359 19.3987 108.548 20.4281 108.548 21.5774C108.548 22.7126 108.359 23.7385 107.981 24.6551C107.603 25.5646 107.04 26.2838 106.291 26.8126C105.543 27.3414 104.616 27.6058 103.511 27.6058ZM103.899 25.3214C104.578 25.3214 105.123 25.1663 105.536 24.856C105.956 24.5387 106.26 24.0981 106.449 23.534C106.645 22.97 106.743 22.3177 106.743 21.5774C106.743 20.83 106.645 20.1778 106.449 19.6208C106.26 19.0567 105.963 18.6196 105.557 18.3094C105.151 17.9921 104.626 17.8334 103.983 17.8334C103.304 17.8334 102.745 18.0027 102.304 18.3411C101.863 18.6725 101.538 19.1237 101.328 19.6948C101.118 20.2589 101.013 20.8864 101.013 21.5774C101.013 22.2754 101.114 22.91 101.318 23.4811C101.527 24.0452 101.846 24.4929 102.272 24.8243C102.699 25.1557 103.241 25.3214 103.899 25.3214ZM106.743 27.2886V19.2718H106.428V12.0588H108.978V27.2886H106.743ZM116.296 27.6058C114.897 27.6058 113.76 27.2886 112.885 26.654C112.011 26.0194 111.479 25.1275 111.29 23.9782L113.872 23.5763C114.005 24.1404 114.299 24.5846 114.754 24.9089C115.208 25.2333 115.782 25.3954 116.474 25.3954C117.083 25.3954 117.552 25.2756 117.881 25.0358C118.216 24.7891 118.384 24.4541 118.384 24.0311C118.384 23.7702 118.322 23.5622 118.195 23.4071C118.077 23.2449 117.811 23.0898 117.398 22.9417C116.985 22.7937 116.352 22.6068 115.499 22.3812C114.547 22.1274 113.792 21.8559 113.232 21.5668C112.672 21.2707 112.27 20.9217 112.025 20.5198C111.78 20.1179 111.658 19.6314 111.658 19.0603C111.658 18.3481 111.843 17.7277 112.214 17.1989C112.585 16.67 113.102 16.2646 113.767 15.9826C114.432 15.6935 115.215 15.549 116.118 15.549C116.999 15.549 117.779 15.6865 118.458 15.9615C119.144 16.2364 119.696 16.6277 120.116 17.1354C120.536 17.6431 120.794 18.2389 120.892 18.9228L118.311 19.3881C118.248 18.9016 118.028 18.5174 117.65 18.2353C117.279 17.9533 116.782 17.7946 116.16 17.7594C115.565 17.7242 115.086 17.8158 114.722 18.0344C114.358 18.2459 114.176 18.5456 114.176 18.9333C114.176 19.1519 114.25 19.3388 114.397 19.4939C114.544 19.649 114.837 19.8041 115.278 19.9593C115.726 20.1144 116.391 20.3048 117.272 20.5304C118.175 20.7631 118.895 21.031 119.434 21.3341C119.979 21.6303 120.371 21.9864 120.609 22.4024C120.854 22.8183 120.976 23.3225 120.976 23.9147C120.976 25.064 120.56 25.9665 119.728 26.6222C118.902 27.278 117.758 27.6058 116.296 27.6058ZM128.28 27.6058C127.147 27.6058 126.157 27.3485 125.311 26.8338C124.464 26.3191 123.807 25.6105 123.338 24.708C122.876 23.7984 122.645 22.7549 122.645 21.5774C122.645 20.3788 122.883 19.3282 123.359 18.4257C123.835 17.5232 124.495 16.8181 125.342 16.3104C126.189 15.8028 127.168 15.549 128.28 15.549C129.421 15.549 130.414 15.8063 131.261 16.321C132.107 16.8357 132.765 17.5479 133.234 18.4574C133.702 19.3599 133.937 20.3999 133.937 21.5774C133.937 22.7619 133.699 23.809 133.223 24.7185C132.754 25.621 132.097 26.3297 131.25 26.8444C130.404 27.352 129.414 27.6058 128.28 27.6058ZM128.28 25.2156C129.288 25.2156 130.036 24.8772 130.526 24.2003C131.016 23.5234 131.261 22.6491 131.261 21.5774C131.261 20.4704 131.012 19.5891 130.516 18.9333C130.019 18.2706 129.274 17.9392 128.28 17.9392C127.602 17.9392 127.042 18.0943 126.601 18.4046C126.168 18.7077 125.846 19.1343 125.636 19.6843C125.426 20.2272 125.321 20.8582 125.321 21.5774C125.321 22.6844 125.57 23.5693 126.066 24.232C126.57 24.8878 127.308 25.2156 128.28 25.2156ZM144.088 27.2886V21.7889C144.088 21.4293 144.063 21.031 144.014 20.5938C143.965 20.1567 143.85 19.7371 143.668 19.3352C143.493 18.9263 143.227 18.5914 142.87 18.3305C142.521 18.0696 142.045 17.9392 141.443 17.9392C141.121 17.9392 140.803 17.9921 140.488 18.0978C140.173 18.2036 139.886 18.3869 139.628 18.6478C139.376 18.9016 139.173 19.2542 139.019 19.7054C138.865 20.1496 138.788 20.7207 138.788 21.4188L137.288 20.7736C137.288 19.8006 137.473 18.9193 137.844 18.1296C138.221 17.3399 138.774 16.7123 139.502 16.247C140.23 15.7746 141.125 15.5384 142.188 15.5384C143.028 15.5384 143.72 15.6794 144.266 15.9615C144.812 16.2435 145.246 16.6031 145.567 17.0402C145.889 17.4774 146.127 17.9427 146.281 18.4363C146.435 18.9298 146.533 19.3987 146.575 19.8429C146.624 20.2801 146.648 20.6361 146.648 20.9111V27.2886H144.088ZM136.228 27.2886V15.8663H138.484V19.4093H138.788V27.2886H136.228Z" fill="#97A6BA"/>
</svg>
