<svg width="109" height="54" viewBox="0 0 109 54" fill="none" xmlns="http://www.w3.org/2000/svg">
<path d="M51.3446 29.9416V40.4919H54.814V29.256C54.814 27.834 54.5055 26.5771 53.889 25.4853C53.272 24.3934 52.4241 23.5428 51.3446 22.9334C50.2908 22.324 49.0701 22.0193 47.6822 22.0193C46.2943 22.0193 45.0477 22.3367 43.9427 22.9715C43.1105 23.4305 42.4165 24.0192 41.8609 24.7376V13.2971H38.3916V40.4919H41.8609V29.9416C41.8609 29.0274 42.0664 28.2149 42.4778 27.5039C42.8889 26.793 43.4543 26.2343 44.1742 25.8281C44.8937 25.4218 45.7161 25.2187 46.6415 25.2187C48.029 25.2187 49.1599 25.663 50.0338 26.5517C50.9077 27.4405 51.3446 28.5704 51.3446 29.9416Z" fill="#97A6BA"/>
<path d="M60.8995 39.8824C62.1074 40.5428 63.4694 40.8728 64.9857 40.8728C66.5276 40.8728 67.8772 40.5428 69.0336 39.8824C70.2156 39.1968 71.141 38.2573 71.8094 37.0639C72.4774 35.8705 72.8114 34.4867 72.8114 32.9124V22.4001H69.3421V32.7602C69.3421 34.2584 68.9566 35.4388 68.1853 36.3022C67.4143 37.1404 66.3481 37.5591 64.9857 37.5591C64.0863 37.5591 63.3025 37.3687 62.6342 36.9878C61.9658 36.6069 61.4518 36.0609 61.0922 35.3501C60.7578 34.6136 60.591 33.7502 60.591 32.7602V22.4001H57.1213V32.9124C57.1213 34.4867 57.4553 35.8705 58.1237 37.0639C58.7918 38.2573 59.7171 39.1968 60.8995 39.8824Z" fill="#97A6BA"/>
<path fill-rule="evenodd" clip-rule="evenodd" d="M84.0156 40.8728C82.1907 40.8728 80.5459 40.4667 79.081 39.6542C77.6161 38.816 76.4593 37.6861 75.6113 36.2644C74.7633 34.8423 74.3391 33.2298 74.3391 31.4269C74.3391 29.6496 74.7505 28.0499 75.5729 26.6279C76.4209 25.206 77.5518 24.0887 78.9652 23.2762C80.4046 22.4383 82.0108 22.0193 83.7841 22.0193C85.4805 22.0193 86.9709 22.4002 88.2558 23.1619C89.5667 23.9237 90.5819 24.9775 91.3014 26.3232C92.0468 27.669 92.4195 29.1925 92.4195 30.8938C92.4195 31.1477 92.4067 31.4269 92.3808 31.7316C92.3552 32.0111 92.3038 32.3411 92.2267 32.722H77.8862C78.0085 33.4267 78.2268 34.0741 78.5411 34.6645C79.0551 35.604 79.7877 36.3405 80.7386 36.8735C81.6895 37.3813 82.7817 37.6352 84.0156 37.6352C85.0435 37.6352 85.9817 37.4578 86.8296 37.1022C87.7035 36.7466 88.4486 36.2135 89.0655 35.5023L91.3014 37.7495C90.4278 38.7652 89.3484 39.5398 88.0631 40.0729C86.8041 40.6063 85.4545 40.8728 84.0156 40.8728ZM78.5027 28.0753C78.2147 28.6146 78.0114 29.2113 77.8935 29.8654H89.0378C88.9432 29.1166 88.7468 28.4564 88.4486 27.8848C88.012 27.0215 87.3951 26.3613 86.5982 25.9043C85.8017 25.4218 84.838 25.1806 83.7071 25.1806C82.5247 25.1806 81.484 25.4345 80.5842 25.9424C79.6847 26.4502 78.9908 27.1612 78.5027 28.0753Z" fill="#97A6BA"/>
<path d="M94.6604 39.3494C95.4314 39.8316 96.267 40.2128 97.1664 40.492C98.0914 40.7459 99.0683 40.8728 100.096 40.8728C102.152 40.8728 103.784 40.3776 104.992 39.3873C106.226 38.3973 106.843 37.0513 106.843 35.3501C106.843 34.2328 106.598 33.3315 106.11 32.6459C105.647 31.9603 105.044 31.4143 104.298 31.0082C103.553 30.6017 102.769 30.2843 101.947 30.056C101.124 29.802 100.328 29.5607 99.5563 29.3322C98.8113 29.1036 98.2071 28.8244 97.7446 28.4942C97.2821 28.1641 97.0507 27.6944 97.0507 27.085C97.0507 26.4756 97.3077 26.0058 97.8217 25.6757C98.3616 25.3203 99.1325 25.1425 100.135 25.1425C101.086 25.1425 101.934 25.3203 102.679 25.6757C103.45 26.0312 104.093 26.5391 104.607 27.1992L106.843 24.9902C106.123 23.9999 105.198 23.2635 104.067 22.7811C102.962 22.2732 101.69 22.0193 100.25 22.0193C98.8883 22.0193 97.7187 22.2351 96.7422 22.6668C95.7913 23.0984 95.0459 23.7206 94.5064 24.5331C93.9665 25.3203 93.6967 26.2598 93.6967 27.3516C93.6967 28.4435 93.9282 29.3195 94.3907 29.9797C94.8791 30.6399 95.4956 31.1604 96.241 31.5412C96.9865 31.9221 97.7702 32.2394 98.5926 32.4933C99.441 32.722 100.237 32.9633 100.983 33.2172C101.728 33.4458 102.332 33.7502 102.795 34.1314C103.283 34.4867 103.527 34.9945 103.527 35.6549C103.527 36.3149 103.232 36.8356 102.641 37.2165C102.05 37.5717 101.214 37.7495 100.135 37.7495C99.0555 37.7495 98.0787 37.5591 97.2048 37.1783C96.3312 36.7722 95.5599 36.1627 94.8919 35.3501L92.656 37.5591C93.2215 38.2447 93.8895 38.8416 94.6604 39.3494Z" fill="#97A6BA"/>
<path d="M103.595 16.3254V17.0004H102.772V19.0541H101.991V17.0004H101.169V16.3254H103.595Z" fill="#97A6BA"/>
<path d="M106.8 16.2847V19.0665H106.02V17.7165L105.448 18.3506H105.214L104.642 17.7165V19.0665H103.861V16.2847H104.137L105.331 17.471L106.525 16.2847H106.8Z" fill="#97A6BA"/>
<path d="M5.11859 20.7652C6.19907 24.1879 9.88333 26.0972 13.3476 25.0297C16.8119 23.9622 25.0172 18.3893 23.9367 14.9667C22.8562 11.5439 12.8993 11.5674 9.43499 12.6349C5.97066 13.7024 4.03815 17.3424 5.11859 20.7652Z" fill="#97A6BA"/>
<path d="M3.02503 39.5334C5.0584 41.5426 8.35481 41.5426 10.3882 39.5334C12.4216 37.5245 16.103 30.6302 14.07 28.6211C12.0366 26.6124 5.0584 30.2497 3.02503 32.2586C0.991656 34.2674 0.991656 37.5245 3.02503 39.5334Z" fill="#97A6BA"/>
<path d="M22.4816 41.5086C25.9871 42.4366 29.59 40.3812 30.5292 36.9182C31.4681 33.4548 31.0889 23.6247 27.5838 22.6967C24.0783 21.7688 18.775 30.0946 17.8357 33.5576C16.8963 37.0206 18.9764 40.5806 22.4816 41.5086Z" fill="#97A6BA"/>
</svg>
