<svg width="131" height="60" viewBox="0 0 131 60" fill="none" xmlns="http://www.w3.org/2000/svg">
<path d="M49.0247 19.4595H53.0431V40.5406H49.0247V19.4595Z" fill="#97A6BA"/>
<path d="M65.8576 24.3242C67.8123 24.3242 69.38 24.9148 70.5605 26.096C71.741 27.2772 72.3312 29.029 72.3312 31.3513V40.5404H68.7025V31.832C68.7025 30.4303 68.3831 29.3793 67.7444 28.6786C67.1059 27.9579 66.1963 27.5975 65.0158 27.5975C63.6802 27.5975 62.6253 28.018 61.8515 28.8588C61.0772 29.6796 60.69 30.871 60.69 32.4323V40.5404H57.0613V24.5044H60.5158V26.5765C61.1159 25.8357 61.8708 25.2752 62.7804 24.8948C63.6901 24.5144 64.7158 24.3242 65.8576 24.3242Z" fill="#97A6BA"/>
<path d="M90.816 24.3242L83.9182 40.5404H80.0328L73.135 24.3242H77.0507L82.0507 36.3498L87.2014 24.3242H90.816Z" fill="#97A6BA"/>
<path d="M106.086 32.5063C106.086 32.7635 106.066 33.1288 106.027 33.6034H93.6919C93.9081 34.7694 94.4674 35.6983 95.3702 36.3901C96.2926 37.0622 97.4309 37.3981 98.7849 37.3981C100.512 37.3981 101.935 36.8248 103.054 35.6785L105.026 37.9613C104.319 38.8112 103.426 39.4535 102.347 39.8881C101.268 40.3231 100.051 40.5404 98.6968 40.5404C96.9696 40.5404 95.4487 40.1945 94.1335 39.503C92.8187 38.8112 91.7982 37.8525 91.072 36.6272C90.3653 35.3822 90.0122 33.9787 90.0122 32.4176C90.0122 30.8759 90.3557 29.4925 91.0427 28.2671C91.749 27.022 92.7206 26.0536 93.9569 25.3618C95.1933 24.6701 96.5869 24.3242 98.1371 24.3242C99.6681 24.3242 101.032 24.6701 102.229 25.3618C103.446 26.0338 104.388 26.9924 105.055 28.2375C105.742 29.4628 106.086 30.886 106.086 32.5063ZM98.1371 27.2888C96.9596 27.2888 95.9587 27.6445 95.1344 28.3561C94.3297 29.0478 93.8392 29.9768 93.6627 31.1428H102.583C102.425 29.9965 101.945 29.0676 101.14 28.3561C100.335 27.6445 99.3346 27.2888 98.1371 27.2888Z" fill="#97A6BA"/>
<path d="M112.211 26.6929C113.335 24.9923 115.312 24.4457 118.141 24.4457V27.4825C117.808 27.4217 117.506 27.3914 117.236 27.3914C115.717 27.3914 114.531 28.0999 113.678 28.9705C112.825 29.8207 112.398 31.0556 112.398 32.6753V40.5404H108.497V24.3242H112.211V26.6929Z" fill="#97A6BA"/>
<path d="M130.196 39.4775C129.775 39.8317 129.259 40.0976 128.646 40.2747C128.053 40.4521 127.422 40.5405 126.752 40.5405C125.068 40.5405 123.767 40.0879 122.848 39.1823C121.93 38.2768 121.471 36.9576 121.471 35.2255V27.6365H118.945V24.6836H121.471V21.0811H125.059V24.6836H129.163V27.6365H125.059V35.1368C125.059 35.9046 125.24 36.4949 125.604 36.9086C125.967 37.3021 126.493 37.4993 127.182 37.4993C127.986 37.4993 128.656 37.2825 129.192 36.8495L130.196 39.4775Z" fill="#97A6BA"/>
<path fill-rule="evenodd" clip-rule="evenodd" d="M39.3804 30C39.3804 40.7473 30.7449 49.4594 20.0921 49.4594C9.43941 49.4594 0.803711 40.7473 0.803711 30C0.803711 19.2528 9.43941 10.5405 20.0921 10.5405C30.7449 10.5405 39.3804 19.2528 39.3804 30ZM33.3186 30C33.3186 37.3694 27.397 43.3434 20.0924 43.3434C19.586 43.3434 19.0861 43.3148 18.5944 43.2591C25.2417 42.5544 30.4223 36.8821 30.4223 29.9889C30.4223 23.1305 25.2931 17.4805 18.6938 16.7301C19.1534 16.6814 19.6201 16.6564 20.0924 16.6564C27.397 16.6564 33.3186 22.6305 33.3186 30ZM15.821 39.3989C20.1802 38.6221 23.4959 34.7096 23.4959 30C23.4959 25.2903 20.1802 21.3778 15.821 20.6011C16.3485 20.509 16.891 20.461 17.4446 20.461C22.6665 20.461 26.8997 24.7318 26.8997 30C26.8997 35.2682 22.6665 39.5389 17.4446 39.5389C16.891 39.5389 16.3485 39.4909 15.821 39.3989Z" fill="#97A6BA"/>
</svg>
