<svg width="147" height="56" viewBox="0 0 147 56" fill="none" xmlns="http://www.w3.org/2000/svg">
<path d="M5.46724 17.6361C7.39867 15.9119 10.0213 14.9056 12.6794 14.7804C13.5892 14.7804 14.5016 14.7855 15.4113 14.7778C15.3649 15.6897 15.4113 16.6042 15.384 17.516C15.2556 19.5544 14.4497 21.5467 13.0919 23.1457C11.3271 25.2965 8.62803 26.7396 5.7623 27.1126C4.5111 27.3016 3.24075 27.1815 1.98136 27.2148C2.0032 26.2109 1.93492 25.2045 2.01962 24.2032C2.2655 21.7204 3.51943 19.3424 5.46724 17.6361Z" fill="#97A6BA"/>
<path d="M16.9919 14.7778C17.9643 14.788 18.9366 14.7727 19.9116 14.7829C22.3383 14.9439 24.7323 15.8178 26.5597 17.3332C28.5752 18.9558 29.9561 21.276 30.3103 23.7547C30.4652 24.9046 30.3675 26.0673 30.4274 27.2223C29.5774 27.2197 28.7306 27.2172 27.8806 27.2223C25.7918 27.1686 23.7383 26.5349 21.9897 25.4668C21.1835 24.925 20.3556 24.3757 19.7509 23.6244C18.4246 22.2343 17.5231 20.489 17.1826 18.6492C16.9266 17.3715 17.0301 16.0683 16.9919 14.7778Z" fill="#97A6BA"/>
<path d="M1.98593 28C2.85264 28.0486 3.72208 27.9595 4.58601 28.054C8.28518 28.1324 11.875 30.1861 13.7916 33.3126C14.8907 35.0637 15.4812 37.1391 15.4047 39.201C15.4019 39.8764 15.4129 40.5491 15.3937 41.2222C14.0213 41.1815 12.6351 41.2922 11.2763 41.03C8.25786 40.5276 5.48282 38.7521 3.81227 36.2175C2.54642 34.3746 1.91486 32.1236 1.98047 29.8997C1.98047 29.2646 1.98047 28.6323 1.98593 28Z" fill="#97A6BA"/>
<path d="M25.8371 28.2766C27.3219 27.9492 28.8525 28.0033 30.3618 28.0033L30.4274 28.0683C30.3946 29.4829 30.5064 30.9138 30.2199 32.3122C29.6169 35.4498 27.5211 38.2523 24.702 39.7913C22.9472 40.7596 20.9332 41.2355 18.9274 41.214C18.2861 41.2167 17.642 41.203 17.0008 41.2222C17.0008 40.051 16.9516 38.8743 17.0854 37.7086C17.3965 34.8872 18.9356 32.2608 21.1488 30.4864C22.5187 29.4153 24.1288 28.639 25.8371 28.2766Z" fill="#97A6BA"/>
<path d="M41.4919 36.4441C41.4919 36.9178 41.3337 37.3186 41.0179 37.6464C40.7192 37.9562 40.3415 38.1111 39.8851 38.1111C39.4458 38.1111 39.0769 37.9562 38.7786 37.6464C38.4799 37.3186 38.3306 36.9178 38.3306 36.4441V19.5559C38.3306 19.0822 38.4799 18.6905 38.7786 18.3808C39.0944 18.0529 39.481 17.8889 39.9378 17.8889C40.3942 17.8889 40.7631 18.0529 41.0443 18.3808C41.3425 18.6905 41.4919 19.0822 41.4919 19.5559V36.4441Z" fill="#97A6BA"/>
<path d="M54.8481 23.3333C55.3274 23.3333 55.7241 23.4959 56.0378 23.8213C56.3511 24.1286 56.508 24.5173 56.508 24.9872V31.8744C56.508 33.7905 55.964 35.309 54.8758 36.4297C53.787 37.5504 52.2194 38.111 50.1715 38.111C48.1241 38.111 46.5561 37.5504 45.4678 36.4297C44.3979 35.309 43.8628 33.7905 43.8628 31.8744V24.9872C43.8628 24.5173 44.0196 24.1286 44.3334 23.8213C44.6471 23.4959 45.0433 23.3333 45.5231 23.3333C46.0029 23.3333 46.3992 23.4959 46.7129 23.8213C47.0266 24.1286 47.1835 24.5173 47.1835 24.9872V31.8744C47.1835 32.9771 47.4326 33.7996 47.9304 34.3419C48.4286 34.8661 49.1755 35.1282 50.1715 35.1282C51.1865 35.1282 51.9426 34.8661 52.4408 34.3419C52.9386 33.7996 53.1877 32.9771 53.1877 31.8744V24.9872C53.1877 24.5173 53.3446 24.1286 53.6583 23.8213C53.9715 23.4959 54.3683 23.3333 54.8481 23.3333Z" fill="#97A6BA"/>
<path d="M66.7305 23.3333C68.2207 23.3333 69.3197 23.6857 70.0277 24.3907C70.7354 25.0777 71.2012 25.9724 71.4244 27.0751L70.9497 26.8311L71.1733 26.3973C71.3964 25.9815 71.7411 25.5386 72.207 25.0686C72.6724 24.5806 73.2314 24.1738 73.8831 23.8484C74.5539 23.505 75.2988 23.3333 76.1187 23.3333C77.4598 23.3333 78.4749 23.6135 79.1639 24.1738C79.872 24.7342 80.356 25.4844 80.6169 26.4244C80.8777 27.3463 81.0082 28.3767 81.0082 29.5155V36.4569C81.0082 36.9269 80.8498 37.3246 80.533 37.6499C80.2163 37.9573 79.8161 38.111 79.3316 38.111C78.8476 38.111 78.447 37.9573 78.1302 37.6499C77.8134 37.3246 77.655 36.9269 77.655 36.4569V29.5155C77.655 28.9189 77.581 28.3857 77.4319 27.9157C77.2828 27.4276 77.0126 27.039 76.6213 26.7497C76.2305 26.4605 75.6715 26.3159 74.9452 26.3159C74.2371 26.3159 73.632 26.4605 73.1289 26.7497C72.6258 27.039 72.2442 27.4276 71.9834 27.9157C71.7411 28.3857 71.62 28.9189 71.62 29.5155V36.4569C71.62 36.9269 71.4616 37.3246 71.1453 37.6499C70.8285 37.9573 70.4279 38.111 69.9439 38.111C69.4594 38.111 69.0588 37.9573 68.7425 37.6499C68.4257 37.3246 68.2673 36.9269 68.2673 36.4569V29.5155C68.2673 28.9189 68.1928 28.3857 68.0437 27.9157C67.8946 27.4276 67.6245 27.039 67.2336 26.7497C66.8423 26.4605 66.2833 26.3159 65.557 26.3159C64.8494 26.3159 64.2438 26.4605 63.7407 26.7497C63.2381 27.039 62.8561 27.4276 62.5952 27.9157C62.3534 28.3857 62.2323 28.9189 62.2323 29.5155V36.4569C62.2323 36.9269 62.0739 37.3246 61.7571 37.6499C61.4404 37.9573 61.0402 38.111 60.5557 38.111C60.0712 38.111 59.6711 37.9573 59.3543 37.6499C59.0375 37.3246 58.8792 36.9269 58.8792 36.4569V25.2584C58.8792 24.7884 59.0375 24.3998 59.3543 24.0925C59.6711 23.7671 60.0712 23.6044 60.5557 23.6044C61.0402 23.6044 61.4404 23.7671 61.7571 24.0925C62.0739 24.3998 62.2323 24.7884 62.2323 25.2584V26.4244L61.813 26.343C61.9807 26.0357 62.2137 25.7103 62.5113 25.3669C62.8095 25.0053 63.1728 24.6709 63.6014 24.3636C64.0295 24.0563 64.5047 23.8123 65.026 23.6315C65.5477 23.4327 66.116 23.3333 66.7305 23.3333Z" fill="#97A6BA"/>
<path d="M86.4461 36.4615C86.4461 36.9302 86.2683 37.3269 85.9127 37.6513C85.5577 37.9579 85.108 38.1112 84.5642 38.1112C84.0209 38.1112 83.5712 37.9579 83.2156 37.6513C82.8605 37.3269 82.6827 36.9302 82.6827 36.4615V25.2924C82.6827 24.8237 82.8605 24.4361 83.2156 24.1296C83.5712 23.805 84.0209 23.6428 84.5642 23.6428C85.108 23.6428 85.5577 23.805 85.9127 24.1296C86.2683 24.4361 86.4461 24.8237 86.4461 25.2924V36.4615ZM84.5328 21.885C83.8222 21.885 83.3202 21.7858 83.0273 21.5875C82.735 21.3891 82.5886 21.0376 82.5886 20.5328V20.0189C82.5886 19.4961 82.7455 19.1445 83.0587 18.9642C83.3934 18.7659 83.8954 18.6667 84.5642 18.6667C85.2962 18.6667 85.8087 18.7659 86.101 18.9642C86.3938 19.1625 86.5402 19.5141 86.5402 20.0189V20.5328C86.5402 21.0556 86.3834 21.4162 86.0696 21.6145C85.7564 21.7948 85.244 21.885 84.5328 21.885Z" fill="#97A6BA"/>
<path d="M95.8817 23.3333C97.2204 23.3333 98.2334 23.6135 98.9206 24.1738C99.6264 24.7342 100.105 25.4844 100.359 26.4244C100.63 27.3463 100.766 28.3767 100.766 29.5155V36.4569C100.766 36.9269 100.612 37.3246 100.305 37.6499C99.9969 37.9573 99.6083 38.111 99.1377 38.111C98.6677 38.111 98.2786 37.9573 97.971 37.6499C97.6633 37.3246 97.5095 36.9269 97.5095 36.4569V29.5155C97.5095 28.9189 97.4285 28.3857 97.2656 27.9157C97.1209 27.4276 96.8494 27.039 96.4513 26.7497C96.0536 26.4605 95.4835 26.3159 94.742 26.3159C94.0182 26.3159 93.4033 26.4605 92.8966 26.7497C92.4084 27.039 92.0284 27.4276 91.757 27.9157C91.5036 28.3857 91.3769 28.9189 91.3769 29.5155V36.4569C91.3769 36.9269 91.2235 37.3246 90.9159 37.6499C90.6083 37.9573 90.2192 38.111 89.7491 38.111C89.2786 38.111 88.8895 37.9573 88.5823 37.6499C88.2747 37.3246 88.1208 36.9269 88.1208 36.4569V25.2584C88.1208 24.7884 88.2747 24.3998 88.5823 24.0925C88.8895 23.7671 89.2786 23.6044 89.7491 23.6044C90.2192 23.6044 90.6083 23.7671 90.9159 24.0925C91.2235 24.3998 91.3769 24.7884 91.3769 25.2584V26.4244L90.9702 26.343C91.1331 26.0357 91.3679 25.7103 91.6755 25.3669C91.9832 25.0053 92.3451 24.6709 92.7609 24.3636C93.1771 24.0563 93.6476 23.8123 94.172 23.6315C94.6968 23.4327 95.2664 23.3333 95.8817 23.3333Z" fill="#97A6BA"/>
<path d="M117.363 30.7353C117.363 32.1909 117.022 33.4779 116.342 34.5962C115.679 35.6967 114.777 36.5577 113.636 37.1788C112.514 37.8003 111.253 38.111 109.855 38.111C108.456 38.111 107.186 37.8003 106.045 37.1788C104.923 36.5577 104.021 35.6967 103.34 34.5962C102.678 33.4779 102.347 32.1909 102.347 30.7353C102.347 29.2798 102.678 28.0017 103.34 26.9012C104.021 25.7828 104.923 24.9131 106.045 24.2918C107.186 23.6528 108.456 23.3333 109.855 23.3333C111.253 23.3333 112.514 23.6528 113.636 24.2918C114.777 24.9131 115.679 25.7828 116.342 26.9012C117.022 28.0017 117.363 29.2798 117.363 30.7353ZM114.051 30.7353C114.051 29.8301 113.857 29.049 113.471 28.3923C113.103 27.7177 112.597 27.1941 111.952 26.8213C111.327 26.4485 110.627 26.2622 109.855 26.2622C109.082 26.2622 108.373 26.4485 107.729 26.8213C107.104 27.1941 106.597 27.7177 106.211 28.3923C105.843 29.049 105.659 29.8301 105.659 30.7353C105.659 31.6229 105.843 32.404 106.211 33.0785C106.597 33.7352 107.104 34.25 107.729 34.6228C108.373 34.9956 109.082 35.1819 109.855 35.1819C110.627 35.1819 111.327 34.9956 111.952 34.6228C112.597 34.25 113.103 33.7352 113.471 33.0785C113.857 32.404 114.051 31.6229 114.051 30.7353Z" fill="#97A6BA"/>
<path d="M129.928 23.3333C130.408 23.3333 130.805 23.4959 131.119 23.8213C131.432 24.1286 131.589 24.5173 131.589 24.9872V31.8744C131.589 33.7905 131.045 35.309 129.956 36.4297C128.868 37.5504 127.3 38.111 125.252 38.111C123.205 38.111 121.637 37.5504 120.549 36.4297C119.479 35.309 118.944 33.7905 118.944 31.8744V24.9872C118.944 24.5173 119.1 24.1286 119.414 23.8213C119.728 23.4959 120.124 23.3333 120.604 23.3333C121.084 23.3333 121.48 23.4959 121.794 23.8213C122.107 24.1286 122.264 24.5173 122.264 24.9872V31.8744C122.264 32.9771 122.513 33.7996 123.011 34.3419C123.509 34.8661 124.256 35.1282 125.252 35.1282C126.267 35.1282 127.023 34.8661 127.521 34.3419C128.019 33.7996 128.269 32.9771 128.269 31.8744V24.9872C128.269 24.5173 128.425 24.1286 128.739 23.8213C129.052 23.4959 129.449 23.3333 129.928 23.3333Z" fill="#97A6BA"/>
<path d="M133.408 35.6346C133.233 35.3861 133.154 35.0666 133.172 34.6761C133.189 34.2855 133.417 33.9483 133.854 33.6643C134.133 33.4867 134.43 33.4157 134.745 33.4513C135.059 33.469 135.365 33.6287 135.662 33.9305C136.169 34.4453 136.702 34.8447 137.261 35.1287C137.82 35.4127 138.52 35.5547 139.358 35.5547C139.62 35.537 139.908 35.5015 140.223 35.4482C140.538 35.3772 140.809 35.2352 141.036 35.0222C141.28 34.7915 141.403 34.4453 141.403 33.9838C141.403 33.5933 141.272 33.2826 141.009 33.0518C140.748 32.8211 140.398 32.6258 139.961 32.4661C139.542 32.3063 139.07 32.1555 138.546 32.0134C138.004 31.8537 137.444 31.6762 136.868 31.4809C136.309 31.2857 135.793 31.0371 135.321 30.7353C134.85 30.4158 134.465 29.9987 134.168 29.4839C133.871 28.9691 133.723 28.3212 133.723 27.5402C133.723 26.6526 133.967 25.8983 134.456 25.277C134.946 24.6557 135.575 24.1764 136.343 23.8392C137.13 23.5019 137.951 23.3333 138.808 23.3333C139.349 23.3333 139.917 23.4042 140.512 23.5463C141.106 23.6705 141.674 23.8835 142.215 24.1853C142.757 24.4693 143.212 24.8509 143.578 25.3302C143.771 25.5965 143.884 25.916 143.919 26.2888C143.954 26.6615 143.788 26.9988 143.421 27.3006C143.159 27.5136 142.853 27.6112 142.504 27.5934C142.154 27.558 141.866 27.4337 141.639 27.2207C141.342 26.8302 140.94 26.5195 140.433 26.2888C139.943 26.058 139.376 25.9426 138.729 25.9426C138.467 25.9426 138.179 25.9781 137.864 26.0491C137.567 26.1024 137.305 26.2355 137.078 26.4485C136.85 26.6438 136.737 26.9633 136.737 27.4071C136.737 27.8154 136.868 28.1437 137.13 28.3923C137.392 28.623 137.742 28.8183 138.179 28.978C138.633 29.12 139.113 29.2621 139.62 29.404C140.144 29.546 140.678 29.7147 141.219 29.9099C141.761 30.1052 142.259 30.3626 142.713 30.6821C143.168 31.0016 143.535 31.4188 143.814 31.9335C144.094 32.4306 144.234 33.0696 144.234 33.8506C144.234 34.7559 143.972 35.5281 143.447 36.1671C142.923 36.8062 142.268 37.2942 141.481 37.6316C140.695 37.9512 139.891 38.111 139.07 38.111C138.039 38.111 137.008 37.9335 135.977 37.5783C134.946 37.2054 134.089 36.5577 133.408 35.6346Z" fill="#97A6BA"/>
</svg>
