<svg width="121" height="54" viewBox="0 0 121 54" fill="none" xmlns="http://www.w3.org/2000/svg">
<path d="M19.2218 8.3706C20.244 7.79802 21.5033 7.79802 22.5254 8.3706L36.0597 15.9523L26.7012 21.2693C25.2526 19.8582 23.2477 18.9848 21.0328 18.9848C18.7293 18.9848 16.6532 19.9294 15.1934 21.4412L5.60938 15.9961L19.2218 8.3706Z" fill="#97A6BA"/>
<path d="M13.6225 24.7405L4.00659 19.0588V34.9412L13.5867 29.2806C13.39 28.5786 13.2847 27.838 13.2847 27.0725C13.2847 26.2619 13.4028 25.479 13.6225 24.7405Z" fill="#97A6BA"/>
<path d="M15.6032 32.5588L6.41064 37.9571L19.6491 45.6224C20.6543 46.2043 21.8928 46.2043 22.898 45.6224L36.0597 38.0017L27.0922 32.7354C25.6614 34.2225 23.6535 35.1475 21.4302 35.1475C19.1201 35.1475 17.0425 34.1489 15.6032 32.5588Z" fill="#97A6BA"/>
<path d="M28.8881 29.4908L38.4629 34.9412C38.4632 34.92 38.4636 34.8989 38.4636 34.8777V19.0588L28.8477 24.5324C29.1221 25.3304 29.2707 26.1843 29.2707 27.0719C29.2707 27.915 29.1367 28.7276 28.8881 29.4908Z" fill="#97A6BA"/>
<path fill-rule="evenodd" clip-rule="evenodd" d="M49.1378 36.0795C50.5098 36.9088 52.1584 37.3236 54.0829 37.3236C56.0074 37.3236 57.6557 36.9088 59.028 36.0795C60.4092 35.2411 61.4648 34.0766 62.1954 32.5853C62.9352 31.0943 63.3047 29.3646 63.3047 27.3972C63.3047 25.4295 62.9352 23.7001 62.1954 22.2089C61.4648 20.7178 60.4092 19.5575 59.028 18.7281C57.6557 17.8898 56.0074 17.4707 54.0829 17.4707C52.1584 17.4707 50.5098 17.8898 49.1378 18.7281C47.7657 19.5575 46.7098 20.7178 45.9704 22.2089C45.2398 23.7001 44.8743 25.4295 44.8743 27.3972C44.8743 29.3646 45.2398 31.0943 45.9704 32.5853C46.7098 34.0766 47.7657 35.2411 49.1378 36.0795ZM57.304 33.4722C56.4486 34.0458 55.3748 34.328 54.0829 34.3193C52.791 34.3016 51.7128 34.0059 50.8486 33.4324C49.9932 32.8588 49.3518 32.0603 48.9241 31.0367C48.4964 30.0045 48.2824 28.7912 48.2824 27.3972C48.2824 26.003 48.4964 24.7854 48.9241 23.7442C49.3606 22.703 50.0064 21.8957 50.8618 21.3222C51.7172 20.7486 52.791 20.4663 54.0829 20.4751C55.3748 20.4928 56.4486 20.7883 57.304 21.3619C58.1682 21.9354 58.814 22.7383 59.2417 23.7707C59.6785 24.7942 59.8966 26.003 59.8966 27.3972C59.8966 28.7912 59.6785 30.0088 59.2417 31.0501C58.814 32.0914 58.1682 32.8987 57.304 33.4722Z" fill="#97A6BA"/>
<path d="M64.9072 35.9C64.9072 36.2474 65.2056 36.5293 65.5741 36.5293H67.4298C67.7982 36.5293 68.0967 36.2474 68.0967 35.9V29.7004C68.0967 29.1862 68.1627 28.7096 68.2944 28.2701C68.4261 27.8223 68.6281 27.4242 68.9005 27.076C69.1819 26.7277 69.542 26.4416 69.9814 26.2177C70.4205 25.9689 70.9127 25.8238 71.4575 25.7823C71.6618 25.7671 71.8572 25.7625 72.0436 25.7687C72.488 25.7834 72.9205 25.4748 72.9205 25.0552V23.6287C72.9205 23.3211 72.6847 23.0543 72.3593 23.0371C72.1156 23.0243 71.8676 23.0272 71.6155 23.0459C71.1674 23.0707 70.7283 23.1495 70.2978 23.2822C69.8761 23.4066 69.4893 23.5807 69.1379 23.8046C68.7248 24.0451 68.3691 24.3519 68.0703 24.7251C67.9403 24.8888 67.8216 25.0609 67.7146 25.2413V23.725C67.7146 23.3774 67.4158 23.0956 67.0477 23.0956H65.5741C65.2056 23.0956 64.9072 23.3774 64.9072 23.725V35.9Z" fill="#97A6BA"/>
<path fill-rule="evenodd" clip-rule="evenodd" d="M80.7213 37.3235C79.3061 37.3235 78.1193 36.9994 77.1609 36.351C76.9577 36.2136 76.7654 36.0656 76.5835 35.9072V36.2785C76.5835 36.6406 76.279 36.9345 75.9038 36.9345H74.4016C74.0261 36.9345 73.7219 36.6406 73.7219 36.2785V18.9206C73.7219 18.5583 74.0261 18.2646 74.4016 18.2646H76.3065C76.6821 18.2646 76.9863 18.5583 76.9863 18.9206V23.6105C77.0308 23.5783 77.0753 23.5467 77.1208 23.5155C78.0612 22.8673 79.2208 22.5431 80.6003 22.5431C81.9706 22.5431 83.1574 22.8673 84.1603 23.5155C85.1724 24.1551 85.9561 25.0324 86.5114 26.1475C87.0668 27.2538 87.3444 28.5158 87.3444 29.9333C87.3444 31.3334 87.0712 32.5913 86.5247 33.7061C85.9785 34.8213 85.2081 35.7029 84.214 36.351C83.2199 36.9994 82.0556 37.3235 80.7213 37.3235ZM76.9462 27.5347C76.7042 28.2176 76.5835 29.0171 76.5835 29.9333C76.5835 30.8408 76.7042 31.6404 76.9462 32.3318C77.197 33.0232 77.5864 33.5634 78.1149 33.9524C78.6522 34.3329 79.3554 34.5228 80.2241 34.5228C81.0659 34.5228 81.7602 34.3198 82.3064 33.9137C82.8529 33.5073 83.2556 32.9586 83.5156 32.2669C83.7841 31.567 83.9187 30.789 83.9187 29.9333C83.9187 29.0862 83.7841 28.3169 83.5156 27.6255C83.2468 26.9254 82.8305 26.3722 82.266 25.9659C81.7018 25.5511 80.9854 25.3436 80.1167 25.3436C79.2925 25.3436 78.621 25.5381 78.1013 25.9271C77.582 26.3074 77.197 26.8433 76.9462 27.5347Z" fill="#97A6BA"/>
<path d="M88.947 35.8969C88.947 36.246 89.2481 36.5293 89.6199 36.5293H91.4794C91.8509 36.5293 92.1523 36.246 92.1523 35.8969V23.6617C92.1523 23.3124 91.8509 23.0293 91.4794 23.0293H89.6199C89.2481 23.0293 88.947 23.3124 88.947 23.6617V35.8969Z" fill="#97A6BA"/>
<path d="M103.371 36.547C103.371 36.8654 103.149 37.1405 102.842 37.1865C102.113 37.2956 101.396 37.3396 100.689 37.3184C99.8207 37.3009 99.0418 37.1398 98.352 36.8346C97.6626 36.5212 97.1389 36.0288 96.7813 35.3576C96.4663 34.7479 96.3003 34.1249 96.2832 33.4888C96.2664 32.8526 96.2576 32.1337 96.2576 31.3319V25.4503H94.401C94.044 25.4503 93.7549 25.1542 93.7549 24.789V23.6413C93.7549 23.2761 94.044 22.98 94.401 22.98H96.2576V19.7201C96.2576 19.3549 96.5471 19.0588 96.9038 19.0588H98.6764C99.0334 19.0588 99.3225 19.3549 99.3225 19.7201V22.98H102.725C103.082 22.98 103.371 23.2761 103.371 23.6413V24.789C103.371 25.1542 103.082 25.4503 102.725 25.4503H99.3225V31.1491C99.3225 31.7155 99.327 32.2121 99.3354 32.639C99.3526 33.0662 99.4417 33.4147 99.6036 33.6848C99.9102 34.2076 100.4 34.4996 101.072 34.5604C101.544 34.6034 102.063 34.5988 102.627 34.5472C103.02 34.5111 103.371 34.8186 103.371 35.2227V36.547Z" fill="#97A6BA"/>
<path d="M107.305 36.3442C108.315 36.9971 109.535 37.3236 110.964 37.3236C112.514 37.3236 113.823 36.9352 114.893 36.1587C115.79 35.5005 116.462 34.6065 116.907 33.4772C117.05 33.1166 116.826 32.7245 116.457 32.6398L114.552 32.2005C114.228 32.1258 113.907 32.319 113.761 32.6264C113.538 33.0925 113.253 33.4668 112.903 33.7501C112.432 34.1381 111.786 34.3323 110.964 34.3323C109.8 34.3323 108.923 33.9131 108.332 33.0751C107.742 32.2367 107.446 31.1381 107.446 29.7794C107.446 28.9059 107.57 28.125 107.819 27.4368C108.067 26.7486 108.452 26.2103 108.974 25.8221C109.496 25.4251 110.16 25.2265 110.964 25.2265C111.675 25.2265 112.308 25.4427 112.865 25.875C113.269 26.1826 113.589 26.581 113.826 27.0701C113.981 27.39 114.322 27.5883 114.657 27.4948L116.529 26.9722C116.869 26.8772 117.078 26.5183 116.961 26.1757C116.579 25.0571 115.924 24.154 114.996 23.4662C113.909 22.6456 112.578 22.2354 111.003 22.2354C109.599 22.2354 108.388 22.5618 107.369 23.2148C106.351 23.8589 105.563 24.7501 105.007 25.8883C104.459 27.0177 104.181 28.3147 104.172 29.7794C104.181 31.2178 104.45 32.5059 104.981 33.6442C105.52 34.7823 106.295 35.6823 107.305 36.3442Z" fill="#97A6BA"/>
<path d="M89.2569 19.26L90.2027 18.5102C90.6155 18.1828 91.2852 18.1828 91.698 18.5102L92.6438 19.26C93.0569 19.5875 93.0569 20.1183 92.6438 20.4457L91.698 21.1956C91.2852 21.523 90.6155 21.523 90.2027 21.1956L89.2569 20.4457C88.8437 20.1183 88.8437 19.5875 89.2569 19.26Z" fill="#97A6BA"/>
</svg>
